<svg width="467" height="389" viewBox="0 0 467 389" fill="none" xmlns="http://www.w3.org/2000/svg">
<g opacity="0.7">
<path opacity="0.7" d="M295.082 175.095C295.122 162.788 292.178 150.654 286.5 139.736C283.805 134.609 281.347 131.421 279.434 129.466C278.712 128.701 277.77 128.18 276.738 127.976C275.707 127.772 274.637 127.896 273.679 128.33C272.914 128.6 272.222 129.046 271.66 129.633C269.101 132.285 266.789 135.791 264.77 139.524C258.798 150.697 255.698 163.182 255.75 175.853V183.46H250.874V95.0615C250.874 76.5331 246.73 58.2523 238.613 42.0222C234.767 34.3391 231.259 29.5656 228.558 26.6308C227.904 25.8847 227.098 25.2869 226.195 24.8774C225.291 24.4679 224.311 24.2561 223.319 24.2561C222.327 24.2561 221.346 24.4679 220.443 24.8774C219.539 25.2869 218.734 25.8847 218.079 26.6308C214.425 30.6062 211.129 35.8596 208.247 41.4464C199.711 58.0098 195.375 76.8059 195.375 95.8849V183.46H191.16V175.489C191.212 162.818 188.113 150.333 182.14 139.16C180.121 135.432 177.809 131.926 175.25 129.269C174.513 128.493 173.549 127.971 172.497 127.778C171.444 127.586 170.358 127.733 169.395 128.198L169.571 128.294C168.953 128.568 168.394 128.959 167.926 129.446C166.033 131.401 163.575 134.588 160.859 139.715C155.182 150.634 152.237 162.767 152.278 175.075V307.239H167.32L165.68 318.104V350.589H177.976V318.104L176.335 307.239H191.16V186.88H195.375V306.698H207.388L205.662 318.099V350.589H217.963V318.104L216.237 306.703H232.425L230.699 318.104V350.589H243V318.104L241.273 306.703H250.864V186.88H255.74V307.421H259.692V307.239H272.761L271.12 318.104V350.589H283.421V318.104L281.781 307.239H295.082V175.095Z" fill="url(#paint0_linear)"/>
</g>
<path d="M180.424 311.77H168.779L170.858 297.621H178.344L180.424 311.77Z" fill="#535461"/>
<g opacity="0.1">
<path opacity="0.1" d="M170.278 303.238H178.925L178.344 299.283H170.858L170.278 303.238Z" fill="black"/>
</g>
<path d="M280.246 311.77H268.601L270.681 297.621H278.167L280.246 311.77Z" fill="#535461"/>
<g opacity="0.1">
<path opacity="0.1" d="M270.101 303.238H278.747L278.167 299.283H270.681L270.101 303.238Z" fill="black"/>
</g>
<path d="M218.276 311.77H206.626L208.706 297.621H216.197L218.276 311.77Z" fill="#535461"/>
<g opacity="0.1">
<path opacity="0.1" d="M208.125 303.238H216.777L216.197 299.283H208.706L208.125 303.238Z" fill="black"/>
</g>
<path d="M241.98 311.77H230.335L232.415 297.621H239.9L241.98 311.77Z" fill="#535461"/>
<g opacity="0.1">
<path opacity="0.1" d="M231.834 303.238H240.486L239.9 299.283H232.415L231.834 303.238Z" fill="black"/>
</g>
<path d="M263.609 180.657H180.424V183.986H263.609V180.657Z" fill="#535461"/>
<path d="M276.471 128.057C276.031 127.571 275.495 127.183 274.896 126.918C274.298 126.652 273.65 126.515 272.995 126.515C272.341 126.515 271.693 126.652 271.095 126.918C270.496 127.183 269.96 127.571 269.52 128.057C267.097 130.638 264.912 134.053 262.999 137.685C257.337 148.607 254.409 160.74 254.463 173.044V301.192H291.276V172.514C291.322 160.547 288.535 148.74 283.144 138.059C280.59 133.068 278.263 129.961 276.471 128.057Z" fill="#E0E0E0"/>
<path d="M170.909 128.057C171.349 127.571 171.885 127.183 172.483 126.918C173.082 126.652 173.729 126.515 174.384 126.515C175.039 126.515 175.687 126.652 176.285 126.918C176.884 127.183 177.42 127.571 177.86 128.057C180.282 130.638 182.468 134.053 184.381 137.685C190.042 148.607 192.971 160.74 192.917 173.044V301.192H156.094V172.514C156.048 160.547 158.834 148.74 164.226 138.059C166.775 133.068 169.102 129.961 170.909 128.057Z" fill="#E0E0E0"/>
<path d="M156.301 175.247L165.033 175.287V186.067H156.301V175.247Z" fill="#535461"/>
<path d="M184.169 175.247L192.902 175.287V186.067H184.169V175.247Z" fill="#535461"/>
<path d="M254.458 175.247L263.195 175.287V186.067H254.458V175.247Z" fill="#535461"/>
<path d="M282.326 175.247L291.064 175.287V186.067H282.326V175.247Z" fill="#535461"/>
<g opacity="0.1">
<path opacity="0.1" d="M184.366 137.518C182.458 133.886 180.267 130.472 177.844 127.89C177.16 127.134 176.246 126.622 175.244 126.433C174.241 126.244 173.205 126.389 172.292 126.845C172.818 127.107 173.293 127.461 173.695 127.89C176.118 130.472 178.304 133.886 180.217 137.518C185.878 148.44 188.807 160.574 188.752 172.878V301.015H192.912V172.893C192.966 160.583 190.033 148.444 184.366 137.518Z" fill="black"/>
</g>
<g opacity="0.1">
<path opacity="0.1" d="M266.31 137.872C268.218 134.24 270.409 130.825 272.831 128.244C273.285 127.755 273.833 127.364 274.442 127.092C273.542 126.698 272.541 126.597 271.581 126.804C270.62 127.01 269.749 127.514 269.091 128.244C266.668 130.825 264.483 134.24 262.57 137.872C256.908 148.794 253.979 160.927 254.034 173.231V301.369H257.779V173.251C257.72 160.941 260.647 148.8 266.31 137.872Z" fill="black"/>
</g>
<path d="M180.424 311.77H168.779V343.401H180.424V311.77Z" fill="url(#paint1_linear)"/>
<path d="M218.271 311.77H206.626V343.401H218.271V311.77Z" fill="url(#paint2_linear)"/>
<path d="M241.98 311.77H230.335V343.401H241.98V311.77Z" fill="url(#paint3_linear)"/>
<path d="M280.246 311.77H268.601V343.401H280.246V311.77Z" fill="url(#paint4_linear)"/>
<path d="M228.301 27.5855C227.693 26.8619 226.933 26.2802 226.077 25.8811C225.22 25.482 224.287 25.2752 223.342 25.2752C222.397 25.2752 221.463 25.482 220.606 25.8811C219.75 26.2802 218.991 26.8619 218.382 27.5855C214.925 31.4548 211.82 36.5718 209.074 42.0172C200.998 58.1512 196.889 76.4624 196.889 95.0312V300.667H249.43V94.2028C249.43 76.1593 245.508 58.3381 237.821 42.5728C234.181 35.0918 230.86 30.4445 228.301 27.5855Z" fill="#EEEEEE"/>
<path d="M230.951 50.4277H214.642C211.575 50.4277 209.089 52.9154 209.089 55.9842V57.444C209.089 60.5128 211.575 63.0005 214.642 63.0005H230.951C234.017 63.0005 236.503 60.5128 236.503 57.444V55.9842C236.503 52.9154 234.017 50.4277 230.951 50.4277Z" fill="#F9A826"/>
<g opacity="0.7">
<path opacity="0.7" d="M345.558 339.946C343.834 329.543 338.256 320.172 329.936 313.702C321.615 307.231 311.164 304.135 300.665 305.032C290.166 305.928 280.39 310.751 273.285 318.539C266.181 326.327 262.27 336.509 262.332 347.054C262.332 347.261 262.332 347.463 262.332 347.67C260.783 347.905 259.249 348.234 257.739 348.655C255.805 340.949 251.525 334.035 245.491 328.871C239.458 323.707 231.969 320.548 224.062 319.831C216.154 319.115 208.22 320.876 201.358 324.872C194.495 328.868 189.044 334.9 185.759 342.133C182.373 340.826 178.817 340.013 175.199 339.719C174.623 336.441 173.655 333.244 172.317 330.197C171.689 320.582 167.462 311.558 160.479 304.924C153.496 298.291 144.271 294.536 134.644 294.408C125.016 294.281 115.695 297.79 108.539 304.237C101.383 310.683 96.9188 319.592 96.0369 329.187C94.0549 333.387 92.789 337.889 92.2915 342.507C83.5295 346.155 76.4328 352.929 72.377 361.515C68.3212 370.101 67.595 379.888 70.3392 388.98H377.025C378.624 383.677 379.055 378.09 378.288 372.605C377.522 367.119 375.576 361.865 372.585 357.205C369.594 352.544 365.629 348.588 360.963 345.609C356.298 342.629 351.042 340.697 345.558 339.946Z" fill="url(#paint5_linear)"/>
</g>
<path d="M137.655 369.85C157.958 369.85 174.417 353.379 174.417 333.061C174.417 312.743 157.958 296.272 137.655 296.272C117.352 296.272 100.893 312.743 100.893 333.061C100.893 353.379 117.352 369.85 137.655 369.85Z" fill="url(#paint6_linear)"/>
<path d="M137.473 387.141C159.706 387.141 177.728 369.105 177.728 346.857C177.728 324.608 159.706 306.572 137.473 306.572C115.241 306.572 97.2181 324.608 97.2181 346.857C97.2181 369.105 115.241 387.141 137.473 387.141Z" fill="url(#paint7_linear)"/>
<path d="M301.068 387.141C323.3 387.141 341.323 369.105 341.323 346.857C341.323 324.608 323.3 306.572 301.068 306.572C278.836 306.572 260.813 324.608 260.813 346.857C260.813 369.105 278.836 387.141 301.068 387.141Z" fill="url(#paint8_linear)"/>
<path d="M299.044 387.141C319.347 387.141 335.806 370.67 335.806 350.352C335.806 330.034 319.347 313.563 299.044 313.563C278.741 313.563 262.282 330.034 262.282 350.352C262.282 370.67 278.741 387.141 299.044 387.141Z" fill="url(#paint9_linear)"/>
<path d="M257.502 357.343C257.508 363.161 256.132 368.897 253.489 374.078C250.846 379.26 247.01 383.739 242.298 387.146H199.176C194.072 383.454 190.001 378.513 187.352 372.795C184.704 367.078 183.567 360.775 184.051 354.492C184.534 348.208 186.622 342.154 190.114 336.909C193.606 331.665 198.385 327.406 203.994 324.54C209.602 321.673 215.852 320.297 222.145 320.541C228.438 320.785 234.563 322.643 239.932 325.935C245.302 329.227 249.737 333.844 252.813 339.344C255.888 344.843 257.501 351.041 257.497 357.343H257.502Z" fill="url(#paint10_linear)"/>
<path d="M303.092 383.832C303.092 384.934 303.043 386.023 302.946 387.101C302.95 387.116 302.95 387.131 302.946 387.146H229.714C229.613 386.055 229.563 384.949 229.563 383.837C229.557 375.034 232.708 366.521 238.444 359.846C244.18 353.172 252.119 348.779 260.818 347.468C262.636 347.194 264.472 347.056 266.31 347.053C267.249 347.053 268.183 347.089 269.106 347.155C275.695 347.659 282.027 349.93 287.436 353.729C292.845 357.528 297.132 362.714 299.847 368.744C299.998 369.077 300.144 369.416 300.281 369.754C302.137 374.215 303.093 379 303.092 383.832Z" fill="url(#paint11_linear)"/>
<path d="M372.573 376.473C372.577 380.087 372.047 383.682 370.998 387.141H300.634C298.933 381.484 298.609 375.502 299.69 369.694C299.751 369.375 299.811 369.052 299.882 368.739C301.653 360.514 306.187 353.145 312.729 347.859C319.27 342.573 327.424 339.689 335.831 339.689C336.987 339.689 338.123 339.739 339.249 339.85C339.753 339.891 340.258 339.951 340.763 340.017C349.574 341.217 357.652 345.571 363.501 352.274C369.35 358.977 372.573 367.574 372.573 376.473Z" fill="url(#paint12_linear)"/>
<path d="M147.793 387.11C147.915 386.726 148.021 386.342 148.127 385.954C149.8 379.69 149.791 373.095 148.1 366.836C146.409 360.577 143.096 354.876 138.497 350.31C133.897 345.743 128.174 342.473 121.907 340.831C115.639 339.189 109.049 339.232 102.804 340.956C101.341 341.358 99.9062 341.854 98.508 342.441C90.0887 345.946 83.27 352.455 79.3735 360.705C75.477 368.956 74.7804 378.36 77.4188 387.095H147.793V387.11Z" fill="url(#paint13_linear)"/>
<path d="M216.821 387.11C216.942 386.726 217.048 386.342 217.154 385.954C218.827 379.69 218.818 373.095 217.127 366.836C215.436 360.577 212.123 354.876 207.524 350.31C202.925 345.743 197.202 342.473 190.934 340.831C184.666 339.189 178.077 339.232 171.831 340.956C170.368 341.358 168.934 341.854 167.535 342.441C159.116 345.946 152.297 352.455 148.401 360.705C144.504 368.956 143.808 378.36 146.446 387.095H216.821V387.11Z" fill="url(#paint14_linear)"/>
<g opacity="0.7">
<path opacity="0.7" d="M358.601 311.482C362.326 311.482 365.345 308.46 365.345 304.733C365.345 301.006 362.326 297.985 358.601 297.985C354.877 297.985 351.858 301.006 351.858 304.733C351.858 308.46 354.877 311.482 358.601 311.482Z" fill="url(#paint15_linear)"/>
</g>
<g opacity="0.1">
<path opacity="0.1" d="M249.148 102.063H197.157V104.083H249.148V102.063Z" fill="black"/>
</g>
<defs>
<linearGradient id="paint0_linear" x1="223.682" y1="350.589" x2="223.682" y2="24.2718" gradientUnits="userSpaceOnUse">
<stop stop-color="#808080" stop-opacity="0.25"/>
<stop offset="0.54" stop-color="#808080" stop-opacity="0.12"/>
<stop offset="1" stop-color="#808080" stop-opacity="0.1"/>
</linearGradient>
<linearGradient id="paint1_linear" x1="174.599" y1="311.77" x2="174.599" y2="343.406" gradientUnits="userSpaceOnUse">
<stop stop-color="#E0E0E0"/>
<stop offset="0.31" stop-color="#FCCC63"/>
<stop offset="0.77" stop-color="#F55F44"/>
</linearGradient>
<linearGradient id="paint2_linear" x1="5107.88" y1="19834.8" x2="5107.88" y2="21815.9" gradientUnits="userSpaceOnUse">
<stop stop-color="#E0E0E0"/>
<stop offset="0.31" stop-color="#FCCC63"/>
<stop offset="0.77" stop-color="#F55F44"/>
</linearGradient>
<linearGradient id="paint3_linear" x1="5678.55" y1="19834.8" x2="5678.55" y2="21815.9" gradientUnits="userSpaceOnUse">
<stop stop-color="#E0E0E0"/>
<stop offset="0.31" stop-color="#FCCC63"/>
<stop offset="0.77" stop-color="#F55F44"/>
</linearGradient>
<linearGradient id="paint4_linear" x1="6599.62" y1="19834.8" x2="6599.62" y2="21815.9" gradientUnits="userSpaceOnUse">
<stop stop-color="#E0E0E0"/>
<stop offset="0.31" stop-color="#FCCC63"/>
<stop offset="0.77" stop-color="#F55F44"/>
</linearGradient>
<linearGradient id="paint5_linear" x1="180013" y1="79269.2" x2="180013" y2="61559.1" gradientUnits="userSpaceOnUse">
<stop stop-color="#808080" stop-opacity="0.25"/>
<stop offset="0.54" stop-color="#808080" stop-opacity="0.12"/>
<stop offset="1" stop-color="#808080" stop-opacity="0.1"/>
</linearGradient>
<linearGradient id="paint6_linear" x1="137.655" y1="296.272" x2="137.655" y2="369.85" gradientUnits="userSpaceOnUse">
<stop stop-color="#F2F2F2"/>
<stop offset="0.31" stop-color="#E6E6E6"/>
<stop offset="0.77" stop-color="#CCCCCC"/>
</linearGradient>
<linearGradient id="paint7_linear" x1="22024.2" y1="49204.8" x2="22024.2" y2="62055.6" gradientUnits="userSpaceOnUse">
<stop stop-color="#F2F2F2"/>
<stop offset="0.31" stop-color="#E6E6E6"/>
<stop offset="0.77" stop-color="#CCCCCC"/>
</linearGradient>
<linearGradient id="paint8_linear" x1="48281.2" y1="49204.8" x2="48281.2" y2="62055.6" gradientUnits="userSpaceOnUse">
<stop stop-color="#F2F2F2"/>
<stop offset="0.31" stop-color="#E6E6E6"/>
<stop offset="0.77" stop-color="#CCCCCC"/>
</linearGradient>
<linearGradient id="paint9_linear" x1="43821" y1="45987.1" x2="43821" y2="56704.5" gradientUnits="userSpaceOnUse">
<stop stop-color="#F2F2F2"/>
<stop offset="0.31" stop-color="#E6E6E6"/>
<stop offset="0.77" stop-color="#CCCCCC"/>
</linearGradient>
<linearGradient id="paint10_linear" x1="42460.2" y1="46932.8" x2="42460.2" y2="55717" gradientUnits="userSpaceOnUse">
<stop stop-color="#F2F2F2"/>
<stop offset="0.31" stop-color="#E6E6E6"/>
<stop offset="0.77" stop-color="#CCCCCC"/>
</linearGradient>
<linearGradient id="paint11_linear" x1="49128.8" y1="30495.9" x2="49128.8" y2="33678.8" gradientUnits="userSpaceOnUse">
<stop stop-color="#F2F2F2"/>
<stop offset="0.31" stop-color="#E6E6E6"/>
<stop offset="0.77" stop-color="#CCCCCC"/>
</linearGradient>
<linearGradient id="paint12_linear" x1="59303.8" y1="35331.6" x2="59303.8" y2="39790.2" gradientUnits="userSpaceOnUse">
<stop stop-color="#F2F2F2"/>
<stop offset="0.31" stop-color="#E6E6E6"/>
<stop offset="0.77" stop-color="#CCCCCC"/>
</linearGradient>
<linearGradient id="paint13_linear" x1="26429.7" y1="35351.9" x2="26429.7" y2="39813.2" gradientUnits="userSpaceOnUse">
<stop stop-color="#F2F2F2"/>
<stop offset="0.31" stop-color="#E6E6E6"/>
<stop offset="0.77" stop-color="#CCCCCC"/>
</linearGradient>
<linearGradient id="paint14_linear" x1="26498.8" y1="35351.9" x2="26498.8" y2="39813.2" gradientUnits="userSpaceOnUse">
<stop stop-color="#F2F2F2"/>
<stop offset="0.31" stop-color="#E6E6E6"/>
<stop offset="0.77" stop-color="#CCCCCC"/>
</linearGradient>
<linearGradient id="paint15_linear" x1="9933.67" y1="8620.78" x2="9933.67" y2="8260.13" gradientUnits="userSpaceOnUse">
<stop stop-color="#808080" stop-opacity="0.25"/>
<stop offset="0.54" stop-color="#808080" stop-opacity="0.12"/>
<stop offset="1" stop-color="#808080" stop-opacity="0.1"/>
</linearGradient>
</defs>
</svg>
